<svg  xmlns="http://www.w3.org/2000/svg" class= "group" width="704" height="724" viewBox="0 0 704 724">
  <g id="Group_1" data-name="Group 1" transform="translate(-2872 -490.545)">
    <g id="Rectangle_3" data-name="Rectangle 3" transform="translate(3221 490.545)" fill="#fdd7c2" stroke="#707070" stroke-width="1">
      <rect width="184" height="176" rx="35" stroke="none"/>
      <rect x="0.5" y="0.5" width="183" height="175" rx="34.5" fill="none"/>
    </g>
    <g id="Rectangle_6" data-name="Rectangle 6" transform="translate(3225 853.545)" fill="#fdd7c2" stroke="#707070" stroke-width="1">
      <rect width="175" height="185" rx="36" stroke="none"/>
      <rect x="0.5" y="0.5" width="174" height="184" rx="35.5" fill="none"/>
    </g>
    <g id="Rectangle_8" data-name="Rectangle 8" transform="translate(3401 668.545)" fill="rgba(206,51,51,0.88)" stroke="#707070" stroke-width="1">
      <rect width="175" height="185" rx="36" stroke="none"/>
      <rect x="0.5" y="0.5" width="174" height="184" rx="35.5" fill="none"/>
    </g>
    <g id="Rectangle_15" data-name="Rectangle 15" transform="translate(3051 659.545)" fill="#fff" stroke="#707070" stroke-width="1">
      <rect width="175" height="185" rx="36" stroke="none"/>
      <rect x="0.5" y="0.5" width="174" height="184" rx="35.5" fill="none"/>
    </g>
    <g id="Path_2" data-name="Path 2" transform="translate(3050.028 844.545)" fill="#a6c2eb">
      <path d="M 87.5 184.5 C 81.59871673583984 184.5 75.70124053955078 183.8715209960938 69.97142791748047 182.6320190429688 C 64.38716888427734 181.4240264892578 58.89421463012695 179.6214752197266 53.6451416015625 177.2744598388672 C 48.49076080322266 174.9697418212891 43.51919174194336 172.1170196533203 38.86852264404297 168.7955780029297 C 34.26137924194336 165.5051879882813 29.92888069152832 161.7262573242188 25.99140548706055 157.5637817382813 C 22.05345153808594 153.4008026123047 18.47819137573242 148.8199310302734 15.36495208740234 143.9483795166016 C 12.22159481048584 139.0297088623047 9.521738052368164 133.7713775634766 7.340404987335205 128.3194274902344 C 5.118618965148926 122.766357421875 3.412190437316895 116.9550476074219 2.268571376800537 111.0469512939453 C 1.09502375125885 104.9842834472656 0.5 98.74419403076172 0.5 92.5 C 0.5 86.25580596923828 1.09502375125885 80.01571655273438 2.268571376800537 73.95304870605469 C 3.412190437316895 68.04495239257813 5.118618965148926 62.233642578125 7.340404987335205 56.68057250976563 C 9.521738052368164 51.22861862182617 12.22159481048584 45.97028732299805 15.36495208740234 41.05162048339844 C 18.47819137573242 36.18007278442383 22.05345153808594 31.59918975830078 25.99140548706055 27.43621444702148 C 29.92888069152832 23.27373886108398 34.26137924194336 19.49481010437012 38.86852264404297 16.20442771911621 C 43.51919174194336 12.88297653198242 48.49076080322266 10.0302619934082 53.6451416015625 7.725547790527344 C 58.89421463012695 5.378523826599121 64.38716888427734 3.575976133346558 69.97142791748047 2.367976188659668 C 75.70124053955078 1.128476142883301 81.59871673583984 0.5 87.5 0.5 C 93.40128326416016 0.5 99.29875946044922 1.128476142883301 105.0285720825195 2.367976188659668 C 110.6128311157227 3.575976133346558 116.1057891845703 5.378523826599121 121.3548583984375 7.725547790527344 C 126.5092391967773 10.0302619934082 131.4808044433594 12.88297653198242 136.1314697265625 16.20442771911621 C 140.7386169433594 19.49481010437012 145.0711212158203 23.27373886108398 149.0085906982422 27.43621444702148 C 152.9465484619141 31.59918975830078 156.5218048095703 36.18007278442383 159.6350402832031 41.05162048339844 C 162.7784118652344 45.97028732299805 165.4782562255859 51.22861862182617 167.6595916748047 56.68057250976563 C 169.8813781738281 62.233642578125 171.5878143310547 68.04495239257813 172.7314300537109 73.95304870605469 C 173.9049835205078 80.01571655273438 174.5 86.25580596923828 174.5 92.5 C 174.5 98.74419403076172 173.9049835205078 104.9842834472656 172.7314300537109 111.0469512939453 C 171.5878143310547 116.9550476074219 169.8813781738281 122.766357421875 167.6595916748047 128.3194274902344 C 165.4782562255859 133.7713775634766 162.7784118652344 139.0297088623047 159.6350402832031 143.9483795166016 C 156.5218048095703 148.8199310302734 152.9465484619141 153.4008026123047 149.0085906982422 157.5637817382813 C 145.0711212158203 161.7262573242188 140.7386169433594 165.5051879882813 136.1314697265625 168.7955780029297 C 131.4808044433594 172.1170196533203 126.5092391967773 174.9697418212891 121.3548583984375 177.2744598388672 C 116.1057891845703 179.6214752197266 110.6128311157227 181.4240264892578 105.0285720825195 182.6320190429688 C 99.29875946044922 183.8715209960938 93.40128326416016 184.5 87.5 184.5 Z" stroke="none"/>
      <path d="M 87.5 1 C 81.63419342041016 1 75.77228546142578 1.624664306640625 70.07714080810547 2.856674194335938 C 64.52664184570313 4.057357788085938 59.06678771972656 5.849075317382813 53.84923553466797 8.1820068359375 C 48.72521209716797 10.47314453125 43.78274536132813 13.30917358398438 39.15911865234375 16.61131286621094 C 34.57809448242188 19.88304138183594 30.27005004882813 23.64067077636719 26.3546142578125 27.77983093261719 C 22.43827819824219 31.91995239257813 18.882568359375 36.475830078125 15.7862548828125 41.32087707519531 C 12.65974426269531 46.21316528320313 9.974334716796875 51.44340515136719 7.80462646484375 56.86630249023438 C 5.59454345703125 62.39012145996094 3.8970947265625 68.17090606689453 2.759475708007813 74.04807281494141 C 1.59197998046875 80.07949829101563 1 86.28762054443359 1 92.5 C 1 98.71237945556641 1.59197998046875 104.9205017089844 2.759475708007813 110.9519271850586 C 3.8970947265625 116.8290939331055 5.59454345703125 122.6098785400391 7.80462646484375 128.1336975097656 C 9.974334716796875 133.5565948486328 12.65974426269531 138.7868347167969 15.7862548828125 143.6791229248047 C 18.882568359375 148.524169921875 22.43827819824219 153.0800476074219 26.3546142578125 157.2201690673828 C 30.27005004882813 161.3593292236328 34.57809448242188 165.1169586181641 39.15911865234375 168.3886871337891 C 43.78274536132813 171.6908264160156 48.72521209716797 174.52685546875 53.84923553466797 176.8179931640625 C 59.06678771972656 179.1509246826172 64.52664184570313 180.9426422119141 70.07714080810547 182.1433410644531 C 75.77228546142578 183.3753356933594 81.63419342041016 184 87.5 184 C 93.36580657958984 184 99.22771453857422 183.3753356933594 104.9228591918945 182.1433410644531 C 110.4733581542969 180.9426422119141 115.9332122802734 179.1509246826172 121.1507568359375 176.8179931640625 C 126.2747802734375 174.52685546875 131.2172546386719 171.6908264160156 135.8408813476563 168.3886871337891 C 140.4219055175781 165.1169586181641 144.7299499511719 161.3593292236328 148.6453857421875 157.2201690673828 C 152.5617065429688 153.0800476074219 156.117431640625 148.524169921875 159.2137451171875 143.6791229248047 C 162.3402557373047 138.7868347167969 165.0256652832031 133.5565948486328 167.1953735351563 128.1336975097656 C 169.4054565429688 122.6098785400391 171.1029052734375 116.8290939331055 172.2405242919922 110.9519271850586 C 173.4080200195313 104.9205017089844 174 98.71237945556641 174 92.5 C 174 86.28762054443359 173.4080200195313 80.07949829101563 172.2405242919922 74.04807281494141 C 171.1029052734375 68.17090606689453 169.4054565429688 62.39012145996094 167.1953735351563 56.86630249023438 C 165.0256652832031 51.44340515136719 162.3402557373047 46.21316528320313 159.2137451171875 41.32087707519531 C 156.117431640625 36.475830078125 152.5617065429688 31.91995239257813 148.6453857421875 27.77983093261719 C 144.7299499511719 23.64067077636719 140.4219055175781 19.88304138183594 135.8408813476563 16.61131286621094 C 131.2172546386719 13.30917358398438 126.2747802734375 10.47314453125 121.1507568359375 8.1820068359375 C 115.9332122802734 5.849075317382813 110.4733581542969 4.057357788085938 104.9228591918945 2.856674194335938 C 99.22771453857422 1.624664306640625 93.36580657958984 1 87.5 1 M 87.5 0 C 135.8249053955078 0 175 41.41366577148438 175 92.5 C 175 143.5863342285156 135.8249053955078 185 87.5 185 C 39.17509460449219 185 0 143.5863342285156 0 92.5 C 0 41.41366577148438 39.17509460449219 0 87.5 0 Z" stroke="none" fill="#707070"/>
    </g>
    <g id="Rectangle_16" data-name="Rectangle 16" transform="translate(3051 1029.545)" fill="#fff" stroke="#707070" stroke-width="1">
      <rect width="175" height="185" rx="36" stroke="none"/>
      <rect x="0.5" y="0.5" width="174" height="184" rx="35.5" fill="none"/>
    </g>
    <g id="Rectangle_17" data-name="Rectangle 17" transform="translate(2872 844.545)" fill="#d1f3c6" stroke="#707070" stroke-width="1">
      <rect width="175" height="185" rx="36" stroke="none"/>
      <rect x="0.5" y="0.5" width="174" height="184" rx="35.5" fill="none"/>
    </g>
    <g id="Path_3" data-name="Path 3" transform="translate(3225.055 666.545)" fill="#1880ad">
      <path d="M 87.5 184.5 C 81.59871673583984 184.5 75.70124053955078 183.8715209960938 69.97142791748047 182.6320190429688 C 64.38716888427734 181.4240264892578 58.89421463012695 179.6214752197266 53.6451416015625 177.2744598388672 C 48.49076080322266 174.9697418212891 43.51919174194336 172.1170196533203 38.86852264404297 168.7955780029297 C 34.26137924194336 165.5051879882813 29.92888069152832 161.7262573242188 25.99140548706055 157.5637817382813 C 22.05345153808594 153.4008026123047 18.47819137573242 148.8199310302734 15.36495208740234 143.9483795166016 C 12.22159481048584 139.0297088623047 9.521738052368164 133.7713775634766 7.340404987335205 128.3194274902344 C 5.118618965148926 122.766357421875 3.412190437316895 116.9550476074219 2.268571376800537 111.0469512939453 C 1.09502375125885 104.9842834472656 0.5 98.74419403076172 0.5 92.5 C 0.5 86.25580596923828 1.09502375125885 80.01571655273438 2.268571376800537 73.95304870605469 C 3.412190437316895 68.04495239257813 5.118618965148926 62.233642578125 7.340404987335205 56.68057250976563 C 9.521738052368164 51.22861862182617 12.22159481048584 45.97028732299805 15.36495208740234 41.05162048339844 C 18.47819137573242 36.18007278442383 22.05345153808594 31.59918975830078 25.99140548706055 27.43621444702148 C 29.92888069152832 23.27373886108398 34.26137924194336 19.49481010437012 38.86852264404297 16.20442771911621 C 43.51919174194336 12.88297653198242 48.49076080322266 10.0302619934082 53.6451416015625 7.725547790527344 C 58.89421463012695 5.378523826599121 64.38716888427734 3.575976133346558 69.97142791748047 2.367976188659668 C 75.70124053955078 1.128476142883301 81.59871673583984 0.5 87.5 0.5 C 93.40128326416016 0.5 99.29875946044922 1.128476142883301 105.0285720825195 2.367976188659668 C 110.6128311157227 3.575976133346558 116.1057891845703 5.378523826599121 121.3548583984375 7.725547790527344 C 126.5092391967773 10.0302619934082 131.4808044433594 12.88297653198242 136.1314697265625 16.20442771911621 C 140.7386169433594 19.49481010437012 145.0711212158203 23.27373886108398 149.0085906982422 27.43621444702148 C 152.9465484619141 31.59918975830078 156.5218048095703 36.18007278442383 159.6350402832031 41.05162048339844 C 162.7784118652344 45.97028732299805 165.4782562255859 51.22861862182617 167.6595916748047 56.68057250976563 C 169.8813781738281 62.233642578125 171.5878143310547 68.04495239257813 172.7314300537109 73.95304870605469 C 173.9049835205078 80.01571655273438 174.5 86.25580596923828 174.5 92.5 C 174.5 98.74419403076172 173.9049835205078 104.9842834472656 172.7314300537109 111.0469512939453 C 171.5878143310547 116.9550476074219 169.8813781738281 122.766357421875 167.6595916748047 128.3194274902344 C 165.4782562255859 133.7713775634766 162.7784118652344 139.0297088623047 159.6350402832031 143.9483795166016 C 156.5218048095703 148.8199310302734 152.9465484619141 153.4008026123047 149.0085906982422 157.5637817382813 C 145.0711212158203 161.7262573242188 140.7386169433594 165.5051879882813 136.1314697265625 168.7955780029297 C 131.4808044433594 172.1170196533203 126.5092391967773 174.9697418212891 121.3548583984375 177.2744598388672 C 116.1057891845703 179.6214752197266 110.6128311157227 181.4240264892578 105.0285720825195 182.6320190429688 C 99.29875946044922 183.8715209960938 93.40128326416016 184.5 87.5 184.5 Z" stroke="none"/>
      <path d="M 87.5 1 C 81.63419342041016 1 75.77228546142578 1.624664306640625 70.07714080810547 2.856674194335938 C 64.52664184570313 4.057357788085938 59.06678771972656 5.849075317382813 53.84923553466797 8.1820068359375 C 48.72521209716797 10.47314453125 43.78274536132813 13.30917358398438 39.15911865234375 16.61131286621094 C 34.57809448242188 19.88304138183594 30.27005004882813 23.64067077636719 26.3546142578125 27.77983093261719 C 22.43827819824219 31.91995239257813 18.882568359375 36.475830078125 15.7862548828125 41.32087707519531 C 12.65974426269531 46.21316528320313 9.974334716796875 51.44340515136719 7.80462646484375 56.86630249023438 C 5.59454345703125 62.39012145996094 3.8970947265625 68.17090606689453 2.759475708007813 74.04807281494141 C 1.59197998046875 80.07949829101563 1 86.28762054443359 1 92.5 C 1 98.71237945556641 1.59197998046875 104.9205017089844 2.759475708007813 110.9519271850586 C 3.8970947265625 116.8290939331055 5.59454345703125 122.6098785400391 7.80462646484375 128.1336975097656 C 9.974334716796875 133.5565948486328 12.65974426269531 138.7868347167969 15.7862548828125 143.6791229248047 C 18.882568359375 148.524169921875 22.43827819824219 153.0800476074219 26.3546142578125 157.2201690673828 C 30.27005004882813 161.3593292236328 34.57809448242188 165.1169586181641 39.15911865234375 168.3886871337891 C 43.78274536132813 171.6908264160156 48.72521209716797 174.52685546875 53.84923553466797 176.8179931640625 C 59.06678771972656 179.1509246826172 64.52664184570313 180.9426422119141 70.07714080810547 182.1433410644531 C 75.77228546142578 183.3753356933594 81.63419342041016 184 87.5 184 C 93.36580657958984 184 99.22771453857422 183.3753356933594 104.9228591918945 182.1433410644531 C 110.4733581542969 180.9426422119141 115.9332122802734 179.1509246826172 121.1507568359375 176.8179931640625 C 126.2747802734375 174.52685546875 131.2172546386719 171.6908264160156 135.8408813476563 168.3886871337891 C 140.4219055175781 165.1169586181641 144.7299499511719 161.3593292236328 148.6453857421875 157.2201690673828 C 152.5617065429688 153.0800476074219 156.117431640625 148.524169921875 159.2137451171875 143.6791229248047 C 162.3402557373047 138.7868347167969 165.0256652832031 133.5565948486328 167.1953735351563 128.1336975097656 C 169.4054565429688 122.6098785400391 171.1029052734375 116.8290939331055 172.2405242919922 110.9519271850586 C 173.4080200195313 104.9205017089844 174 98.71237945556641 174 92.5 C 174 86.28762054443359 173.4080200195313 80.07949829101563 172.2405242919922 74.04807281494141 C 171.1029052734375 68.17090606689453 169.4054565429688 62.39012145996094 167.1953735351563 56.86630249023438 C 165.0256652832031 51.44340515136719 162.3402557373047 46.21316528320313 159.2137451171875 41.32087707519531 C 156.117431640625 36.475830078125 152.5617065429688 31.91995239257813 148.6453857421875 27.77983093261719 C 144.7299499511719 23.64067077636719 140.4219055175781 19.88304138183594 135.8408813476563 16.61131286621094 C 131.2172546386719 13.30917358398438 126.2747802734375 10.47314453125 121.1507568359375 8.1820068359375 C 115.9332122802734 5.849075317382813 110.4733581542969 4.057357788085938 104.9228591918945 2.856674194335938 C 99.22771453857422 1.624664306640625 93.36580657958984 1 87.5 1 M 87.5 0 C 135.8249053955078 0 175 41.41366577148438 175 92.5 C 175 143.5863342285156 135.8249053955078 185 87.5 185 C 39.17509460449219 185 0 143.5863342285156 0 92.5 C 0 41.41366577148438 39.17509460449219 0 87.5 0 Z" stroke="none" fill="#707070"/>
    </g>
  </g>
</svg>
